<svg width="121" height="12" viewBox="0 0 121 12" fill="none" xmlns="http://www.w3.org/2000/svg">
<path d="M120.161 6.08362L115.161 3.19687V8.97037L120.161 6.08362ZM3.91055 6.58362C4.1867 6.58362 4.41055 6.35976 4.41055 6.08362C4.41055 5.80748 4.1867 5.58362 3.91055 5.58362V6.58362ZM11.4106 5.58362C11.1344 5.58362 10.9106 5.80748 10.9106 6.08362C10.9106 6.35976 11.1344 6.58362 11.4106 6.58362V5.58362ZM18.9106 6.58362C19.1867 6.58362 19.4106 6.35976 19.4106 6.08362C19.4106 5.80748 19.1867 5.58362 18.9106 5.58362V6.58362ZM26.4106 5.58362C26.1344 5.58362 25.9106 5.80748 25.9106 6.08362C25.9106 6.35976 26.1344 6.58362 26.4106 6.58362V5.58362ZM33.9106 6.58362C34.1867 6.58362 34.4106 6.35976 34.4106 6.08362C34.4106 5.80748 34.1867 5.58362 33.9106 5.58362V6.58362ZM41.4106 5.58362C41.1344 5.58362 40.9106 5.80748 40.9106 6.08362C40.9106 6.35976 41.1344 6.58362 41.4106 6.58362V5.58362ZM48.9106 6.58362C49.1867 6.58362 49.4106 6.35976 49.4106 6.08362C49.4106 5.80748 49.1867 5.58362 48.9106 5.58362V6.58362ZM56.4106 5.58362C56.1344 5.58362 55.9106 5.80748 55.9106 6.08362C55.9106 6.35976 56.1344 6.58362 56.4106 6.58362V5.58362ZM63.9106 6.58362C64.1867 6.58362 64.4106 6.35976 64.4106 6.08362C64.4106 5.80748 64.1867 5.58362 63.9106 5.58362V6.58362ZM71.4106 5.58362C71.1344 5.58362 70.9106 5.80748 70.9106 6.08362C70.9106 6.35976 71.1344 6.58362 71.4106 6.58362V5.58362ZM78.9106 6.58362C79.1867 6.58362 79.4106 6.35976 79.4106 6.08362C79.4106 5.80748 79.1867 5.58362 78.9106 5.58362V6.58362ZM86.4106 5.58362C86.1344 5.58362 85.9106 5.80748 85.9106 6.08362C85.9106 6.35976 86.1344 6.58362 86.4106 6.58362V5.58362ZM93.9106 6.58362C94.1867 6.58362 94.4106 6.35976 94.4106 6.08362C94.4106 5.80748 94.1867 5.58362 93.9106 5.58362V6.58362ZM101.411 5.58362C101.134 5.58362 100.911 5.80748 100.911 6.08362C100.911 6.35976 101.134 6.58362 101.411 6.58362V5.58362ZM108.911 6.58362C109.187 6.58362 109.411 6.35976 109.411 6.08362C109.411 5.80748 109.187 5.58362 108.911 5.58362V6.58362ZM116.411 5.58362C116.134 5.58362 115.911 5.80748 115.911 6.08362C115.911 6.35976 116.134 6.58362 116.411 6.58362V5.58362ZM0.160553 6.58362L3.91055 6.58362V5.58362L0.160553 5.58362L0.160553 6.58362ZM11.4106 6.58362L18.9106 6.58362V5.58362L11.4106 5.58362V6.58362ZM26.4106 6.58362L33.9106 6.58362V5.58362L26.4106 5.58362V6.58362ZM41.4106 6.58362L48.9106 6.58362V5.58362L41.4106 5.58362V6.58362ZM56.4106 6.58362L60.1606 6.58362V5.58362L56.4106 5.58362V6.58362ZM60.1606 6.58362L63.9106 6.58362V5.58362L60.1606 5.58362V6.58362ZM71.4106 6.58362L78.9106 6.58362V5.58362L71.4106 5.58362V6.58362ZM86.4106 6.58362L93.9106 6.58362V5.58362L86.4106 5.58362V6.58362ZM101.411 6.58362L108.911 6.58362V5.58362L101.411 5.58362V6.58362ZM120.161 6.08362L110.161 0.310115V11.8571L120.161 6.08362ZM3.91055 7.08362C4.46284 7.08362 4.91055 6.6359 4.91055 6.08362C4.91055 5.53133 4.46284 5.08362 3.91055 5.08362V7.08362ZM11.4106 5.08362C10.8583 5.08362 10.4106 5.53133 10.4106 6.08362C10.4106 6.6359 10.8583 7.08362 11.4106 7.08362V5.08362ZM18.9106 7.08362C19.4628 7.08362 19.9106 6.6359 19.9106 6.08362C19.9106 5.53133 19.4628 5.08362 18.9106 5.08362V7.08362ZM26.4106 5.08362C25.8583 5.08362 25.4106 5.53133 25.4106 6.08362C25.4106 6.6359 25.8583 7.08362 26.4106 7.08362V5.08362ZM33.9106 7.08362C34.4628 7.08362 34.9106 6.6359 34.9106 6.08362C34.9106 5.53133 34.4628 5.08362 33.9106 5.08362V7.08362ZM41.4106 5.08362C40.8583 5.08362 40.4106 5.53133 40.4106 6.08362C40.4106 6.6359 40.8583 7.08362 41.4106 7.08362V5.08362ZM48.9106 7.08362C49.4628 7.08362 49.9106 6.6359 49.9106 6.08362C49.9106 5.53133 49.4628 5.08362 48.9106 5.08362V7.08362ZM56.4106 5.08362C55.8583 5.08362 55.4106 5.53133 55.4106 6.08362C55.4106 6.6359 55.8583 7.08362 56.4106 7.08362V5.08362ZM63.9106 7.08362C64.4628 7.08362 64.9106 6.6359 64.9106 6.08362C64.9106 5.53133 64.4628 5.08362 63.9106 5.08362V7.08362ZM71.4106 5.08362C70.8583 5.08362 70.4106 5.53133 70.4106 6.08362C70.4106 6.6359 70.8583 7.08362 71.4106 7.08362V5.08362ZM78.9106 7.08362C79.4628 7.08362 79.9106 6.6359 79.9106 6.08362C79.9106 5.53133 79.4628 5.08362 78.9106 5.08362V7.08362ZM86.4106 5.08362C85.8583 5.08362 85.4106 5.53133 85.4106 6.08362C85.4106 6.6359 85.8583 7.08362 86.4106 7.08362V5.08362ZM93.9106 7.08362C94.4628 7.08362 94.9106 6.6359 94.9106 6.08362C94.9106 5.53133 94.4628 5.08362 93.9106 5.08362V7.08362ZM101.411 5.08362C100.858 5.08362 100.411 5.53133 100.411 6.08362C100.411 6.6359 100.858 7.08362 101.411 7.08362V5.08362ZM108.911 7.08362C109.463 7.08362 109.911 6.6359 109.911 6.08362C109.911 5.53133 109.463 5.08362 108.911 5.08362V7.08362ZM116.411 5.08362C115.858 5.08362 115.411 5.53133 115.411 6.08362C115.411 6.6359 115.858 7.08362 116.411 7.08362V5.08362ZM0.160553 7.08362L3.91055 7.08362V5.08362L0.160553 5.08362L0.160553 7.08362ZM11.4106 7.08362L18.9106 7.08362V5.08362L11.4106 5.08362V7.08362ZM26.4106 7.08362L33.9106 7.08362V5.08362L26.4106 5.08362V7.08362ZM41.4106 7.08362L48.9106 7.08362V5.08362L41.4106 5.08362V7.08362ZM56.4106 7.08362L60.1606 7.08362V5.08362L56.4106 5.08362V7.08362ZM60.1606 7.08362L63.9106 7.08362V5.08362L60.1606 5.08362V7.08362ZM71.4106 7.08362L78.9106 7.08362V5.08362L71.4106 5.08362V7.08362ZM86.4106 7.08362L93.9106 7.08362V5.08362L86.4106 5.08362V7.08362ZM101.411 7.08362L108.911 7.08362V5.08362L101.411 5.08362V7.08362Z" fill="white"/>
</svg>
